<svg xmlns="http://www.w3.org/2000/svg" width="167.5" height="45.937" viewBox="0 0 167.5 45.937"><g transform="translate(83.75 22.969)"><g transform="translate(-83.75 -22.968)"><g transform="translate(17.495 17.517)"><path d="M87.34,74.448a17.547,17.547,0,0,0,.465-4.015H70.345v17.5a17.5,17.5,0,0,0,4.461-.587V82.009h8.617a17.513,17.513,0,0,0,2.549-3.78H74.806V74.448Z" transform="translate(-70.345 -70.433)"/></g><path d="M4.25,17.486A13.235,13.235,0,0,1,30.539,15.3h4.293A17.484,17.484,0,1,0,15.3,34.832V30.539A13.255,13.255,0,0,1,4.25,17.486Z"/><g transform="translate(37.121 17.117)"><path d="M149.262,80.938V70.515h4.431V80.938c0,2.169,1.119,3.358,2.985,3.358,1.912,0,3.078-1.189,3.078-3.381v-10.4h4.431V80.938c0,4.314-2.845,7.392-7.509,7.392C152.06,88.33,149.262,85.252,149.262,80.938Z" transform="translate(-149.262 -70.095)"/><path d="M222.213,70.515h4.43V83.9h7.019V87.91H222.213Z" transform="translate(-204.07 -70.095)"/><path d="M276.973,70.515h4.43V83.9h7.019V87.91H276.973Z" transform="translate(-245.212 -70.095)"/><path d="M357.213,87.038a9.106,9.106,0,0,1,0-18.211,10.467,10.467,0,0,1,4.85,1.189v4.337a7.185,7.185,0,0,0-4.337-1.446,5.049,5.049,0,1,0,0,10.1,7.212,7.212,0,0,0,4.337-1.563v4.407A10.47,10.47,0,0,1,357.213,87.038Z" transform="translate(-298.681 -68.827)"/><path d="M415,70.515h4.431v17.4H415Z" transform="translate(-348.909 -70.095)"/><path d="M460.307,87.91h-5.246l-3.987-5.76h-.14v5.76H446.5v-17.4h5.853c4.267,0,7.089,1.982,7.089,5.853a5.433,5.433,0,0,1-4.011,5.27Zm-8.045-9.117c1.679,0,2.728-.77,2.728-2.145,0-1.4-1.1-2.145-2.7-2.145h-1.353v4.291Z" transform="translate(-372.58 -70.095)"/><path d="M514.835,87.038a9.106,9.106,0,0,1,0-18.211,10.467,10.467,0,0,1,4.85,1.189v4.337a7.186,7.186,0,0,0-4.337-1.446,5.049,5.049,0,1,0,0,10.1,7.212,7.212,0,0,0,4.337-1.563v4.407A10.471,10.471,0,0,1,514.835,87.038Z" transform="translate(-417.103 -68.827)"/><path d="M572.619,70.515h4.431V83.9h7.019V87.91H572.619Z" transform="translate(-467.331 -70.095)"/><path d="M627.379,70.515h11.472v3.941h-7.042v2.892h6.366v3.591h-6.366v3.031h7.042V87.91H627.379Z" transform="translate(-508.473 -70.095)"/></g><g transform="translate(30.072 39.686)"><path d="M125.709,163.092a2.948,2.948,0,0,1-3.222,3h-1.571V160.1h1.571A2.935,2.935,0,0,1,125.709,163.092Zm-3.182,2.11a2.112,2.112,0,1,0,.008-4.221h-.653V165.2Z" transform="translate(-120.916 -159.966)"/><path d="M165.862,160.1h3.472v.878h-2.505v1.651h2.3v.83h-2.3v1.756h2.505v.878h-3.472Z" transform="translate(-154.684 -159.966)"/><path d="M208.354,159.972v.942a2.582,2.582,0,0,0-1.442-.467c-.588,0-1.055.266-1.055.773,0,.459.387.677,1.136,1.007.886.379,1.692.765,1.692,1.8a1.851,1.851,0,0,1-2.07,1.8,2.969,2.969,0,0,1-1.732-.548v-1.007a2.511,2.511,0,0,0,1.668.684c.636,0,1.151-.33,1.151-.886,0-.5-.435-.733-1.208-1.071-.821-.363-1.595-.733-1.595-1.732a1.753,1.753,0,0,1,1.973-1.691A2.923,2.923,0,0,1,208.354,159.972Z" transform="translate(-184 -159.577)"/><path d="M245.749,160.1h.966v5.993h-.966Z" transform="translate(-214.703 -159.966)"/><path d="M278.309,164.925a2.222,2.222,0,0,0,1.055-.234v-2.231h.9v2.811a3.62,3.62,0,0,1-1.973.556,3.127,3.127,0,0,1,.016-6.251,3.577,3.577,0,0,1,1.764.443V161a3,3,0,0,0-1.683-.5,2.1,2.1,0,0,0-2.127,2.207A2.068,2.068,0,0,0,278.309,164.925Z" transform="translate(-236.89 -159.577)"/><path d="M326.372,166.088h-.9l-3.077-4.454h-.008v4.454h-.926V160.1h.951l3.021,4.374h.008V160.1h.934Z" transform="translate(-271.584 -159.966)"/><path d="M400.283,159.972v.942a2.581,2.581,0,0,0-1.442-.467c-.588,0-1.055.266-1.055.773,0,.459.387.677,1.136,1.007.886.379,1.692.765,1.692,1.8a1.851,1.851,0,0,1-2.07,1.8,2.969,2.969,0,0,1-1.732-.548v-1.007a2.511,2.511,0,0,0,1.667.684c.636,0,1.152-.33,1.152-.886,0-.5-.435-.733-1.208-1.071-.821-.363-1.595-.733-1.595-1.732a1.753,1.753,0,0,1,1.973-1.691A2.922,2.922,0,0,1,400.283,159.972Z" transform="translate(-328.197 -159.577)"/><path d="M436.995,160.981H435.15V160.1H439.8v.886h-1.845v5.107h-.959Z" transform="translate(-357.001 -159.966)"/><path d="M478.316,163.784V160.1h.967v3.713a1.331,1.331,0,0,0,1.369,1.506,1.36,1.36,0,0,0,1.417-1.514V160.1h.966v3.689a2.27,2.27,0,0,1-2.384,2.433A2.242,2.242,0,0,1,478.316,163.784Z" transform="translate(-389.431 -159.966)"/><path d="M528.93,163.092a2.948,2.948,0,0,1-3.222,3h-1.571V160.1h1.571A2.935,2.935,0,0,1,528.93,163.092Zm-3.182,2.11a2.112,2.112,0,1,0,.008-4.221H525.1V165.2Z" transform="translate(-423.857 -159.966)"/><path d="M569.084,160.1h.966v5.993h-.966Z" transform="translate(-457.626 -159.966)"/><path d="M601.644,159.577a3.127,3.127,0,1,1-3.029,3.125A3,3,0,0,1,601.644,159.577Zm2.038,3.125a2.049,2.049,0,1,0-2.038,2.223A2.081,2.081,0,0,0,603.682,162.7Z" transform="translate(-479.812 -159.577)"/></g></g></g></svg>